<svg viewBox="0 0 10 14" fill="none" xmlns="http://www.w3.org/2000/svg">
    <path
        d="M5.00043 0.000444575C4.34141 -0.00856828 3.68734 0.11954 3.07679 0.37721C2.46624 0.63488 1.91158 1.01689 1.44555 1.50071C0.979517 1.98453 0.611545 2.56035 0.363345 3.19419C0.115146 3.82804 -0.00825334 4.50708 0.000428234 5.19124C0.000428234 9.08433 4.52126 13.5398 4.70876 13.7344L5.00043 14.0004L5.2921 13.7344C5.4796 13.5398 10.0004 9.08433 10.0004 5.19124C10.0091 4.50708 9.88571 3.82804 9.63751 3.19419C9.38931 2.56035 9.02134 1.98453 8.55531 1.50071C8.08927 1.01689 7.53462 0.63488 6.92407 0.37721C6.31352 0.11954 5.65944 -0.00856828 5.00043 0.000444575V0.000444575ZM5.00043 6.9215C4.67079 6.9215 4.34856 6.82002 4.07448 6.6299C3.8004 6.43977 3.58677 6.16954 3.46063 5.85338C3.33448 5.53722 3.30148 5.18932 3.36579 4.85368C3.43009 4.51804 3.58883 4.20974 3.82192 3.96776C4.055 3.72577 4.35198 3.56098 4.67528 3.49422C4.99858 3.42746 5.33369 3.46172 5.63823 3.59268C5.94278 3.72364 6.20308 3.94541 6.38621 4.22995C6.56935 4.51449 6.66709 4.84902 6.66709 5.19124C6.66709 5.65013 6.4915 6.09023 6.17894 6.41472C5.86638 6.73921 5.44246 6.9215 5.00043 6.9215Z"
        fill="currentColor" />
</svg>
    