<svg viewBox="0 0 10 18" fill="none" xmlns="http://www.w3.org/2000/svg">
    <mask id="path-1-inside-1_143_1246" fill="#FFFFFF">
        <path fill-rule="evenodd" clip-rule="evenodd"
            d="M4 2C4 3.10457 3.10457 4 2 4C0.895431 4 0 3.10457 0 2C0 0.895431 0.895431 0 2 0C3.10457 0 4 0.895431 4 2ZM10 9C10 10.1046 9.10457 11 8 11C6.89543 11 6 10.1046 6 9C6 7.89543 6.89543 7 8 7C9.10457 7 10 7.89543 10 9ZM2 18C3.10457 18 4 17.1046 4 16C4 14.8954 3.10457 14 2 14C0.895431 14 0 14.8954 0 16C0 17.1046 0.895431 18 2 18Z" />
    </mask>
    <path fill-rule="evenodd" clip-rule="evenodd"
        d="M4 2C4 3.10457 3.10457 4 2 4C0.895431 4 0 3.10457 0 2C0 0.895431 0.895431 0 2 0C3.10457 0 4 0.895431 4 2ZM10 9C10 10.1046 9.10457 11 8 11C6.89543 11 6 10.1046 6 9C6 7.89543 6.89543 7 8 7C9.10457 7 10 7.89543 10 9ZM2 18C3.10457 18 4 17.1046 4 16C4 14.8954 3.10457 14 2 14C0.895431 14 0 14.8954 0 16C0 17.1046 0.895431 18 2 18Z"
        fill="currentColor" />
    <path
        d="M2 5C3.65685 5 5 3.65685 5 2H3C3 2.55228 2.55228 3 2 3V5ZM-1 2C-1 3.65685 0.343146 5 2 5V3C1.44772 3 1 2.55228 1 2H-1ZM2 -1C0.343146 -1 -1 0.343146 -1 2H1C1 1.44772 1.44772 1 2 1V-1ZM5 2C5 0.343146 3.65685 -1 2 -1V1C2.55228 1 3 1.44772 3 2H5ZM8 12C9.65685 12 11 10.6569 11 9H9C9 9.55228 8.55228 10 8 10V12ZM5 9C5 10.6569 6.34315 12 8 12V10C7.44772 10 7 9.55228 7 9H5ZM8 6C6.34315 6 5 7.34315 5 9H7C7 8.44772 7.44772 8 8 8V6ZM11 9C11 7.34315 9.65685 6 8 6V8C8.55228 8 9 8.44772 9 9H11ZM3 16C3 16.5523 2.55228 17 2 17V19C3.65685 19 5 17.6569 5 16H3ZM2 15C2.55228 15 3 15.4477 3 16H5C5 14.3431 3.65685 13 2 13V15ZM1 16C1 15.4477 1.44772 15 2 15V13C0.343146 13 -1 14.3431 -1 16H1ZM2 17C1.44771 17 1 16.5523 1 16H-1C-1 17.6569 0.343146 19 2 19V17Z"
        fill="currentColor" mask="url(#path-1-inside-1_143_1246)" />
</svg>
    